<mxfile host="app.diagrams.net" modified="2023-10-04T12:24:50.778Z" agent="Mozilla/5.0 (Macintosh; Intel Mac OS X 10_15_7) AppleWebKit/537.36 (KHTML, like Gecko) Chrome/116.0.0.0 Safari/537.36" version="22.0.2" etag="-exvj7UT0cDXkcWSJeQC" type="github">
  <diagram name="第 1 页" id="103CMVPiHIJAma0a2DLU">
    <mxGraphModel>
      <root>
        <mxCell id="0" />
        <mxCell id="1" parent="0" />
      </root>
    </mxGraphModel>
  </diagram>
</mxfile>
